<?xml version="1.0" encoding="UTF-8" standalone="no"?>
<svg width="30px" height="30px" viewBox="0 0 30 30" version="1.1" xmlns="http://www.w3.org/2000/svg" xmlns:xlink="http://www.w3.org/1999/xlink">
    <!-- Generator: Sketch 48 (47235) - http://www.bohemiancoding.com/sketch -->
    <title>icon_like</title>
    <desc>Created with Sketch.</desc>
    <defs></defs>
    <g id="Page-1" stroke="none" stroke-width="1" fill="none" fill-rule="evenodd">
        <g id="icon_like" fill="#898D8C">
            <path d="M18.7561691,7.25 C16.7591691,7.25 15.7761691,8.144 14.9661691,9.091 C14.1561691,8.172 13.1781691,7.308 11.2501691,7.308 C11.1381691,7.308 11.0241691,7.311 10.9061691,7.316 C7.81316913,7.472 6.23116913,10.078 6.25016913,12.548 C6.26716913,14.696 6.97916913,16.268 10.8021691,19.707 C12.4101691,21.153 13.8831691,22.137 14.6001691,22.609 C14.7411691,22.703 14.9031691,22.75 15.0651691,22.75 C15.2321691,22.75 15.3981691,22.7 15.5421691,22.603 C16.2511691,22.118 17.7091691,21.112 19.2941691,19.642 C23.0641691,16.144 23.7511691,14.561 23.7351691,12.413 C23.7151691,9.943 22.0941691,7.361 18.9991691,7.254 C18.9161691,7.251 18.8351691,7.25 18.7561691,7.25 M18.7561691,8.25 C18.8241691,8.25 18.8931691,8.251 18.9641691,8.253 C21.5331691,8.343 22.7191691,10.477 22.7351691,12.421 C22.7471691,14.019 22.4671691,15.333 18.6141691,18.908 C17.1121691,20.302 15.7231691,21.267 15.0641691,21.718 C14.3981691,21.276 12.9941691,20.334 11.4711691,18.964 C7.56316913,15.448 7.26216913,14.138 7.25016913,12.54 C7.23516913,10.596 8.38816913,8.444 10.9561691,8.315 C11.0571691,8.311 11.1541691,8.308 11.2501691,8.308 C12.8131691,8.308 13.5451691,8.991 14.2161691,9.753 L14.9781691,10.617 L15.7271691,9.741 C16.3981691,8.955 17.1351691,8.25 18.7561691,8.25" id="Fill-1"></path>
        </g>
    </g>
</svg>