<svg width="60" height="60" xmlns="http://www.w3.org/2000/svg"><g fill="none" fill-rule="evenodd"><path d="M60 30c0 16.568-13.432 30-30 30C13.432 60 0 46.568 0 30 0 13.432 13.432 0 30 0c16.568 0 30 13.432 30 30" fill="#DD7047"/><path d="M20 43.14A1.86 1.86 0 0 1 18.14 45h-1.28A1.86 1.86 0 0 1 15 43.14V28.86A1.86 1.86 0 0 1 16.86 27h1.28A1.86 1.86 0 0 1 20 28.86v14.28zM44 43.14A1.86 1.86 0 0 1 42.14 45h-1.28A1.86 1.86 0 0 1 39 43.14V28.86A1.86 1.86 0 0 1 40.86 27h1.28A1.86 1.86 0 0 1 44 28.86v14.28z" fill="#494846"/><path d="M30.08 14C39.296 14 44 17.836 44 26.203V46h1.38c.463 0 5.62-2.394 5.62-5.698v-7.707c0-3.303-2.789-5.896-2.789-5.896S47.016 9.474 30.081 9.474l-.08.058v-.058c-17.183 0-18.172 17.225-18.172 17.225S9 29.292 9 32.595v7.707C9 43.606 14.157 46 14.62 46H15V26.203C16 17.836 20.454 14 30 14h.08z" fill="#FFF"/></g></svg>