<svg width="60" height="60" xmlns="http://www.w3.org/2000/svg"><g fill="none" fill-rule="evenodd"><path d="M60 30c0 16.568-13.432 30-30 30C13.432 60 0 46.568 0 30 0 13.432 13.432 0 30 0c16.568 0 30 13.432 30 30" fill="#FFD003"/><path fill="#FFF" d="M17.818 35.733L14 48l12.267-3.818z"/><path fill="#FFD003" d="M47.25 17.507l-5.602-5.603-4.137 4.136-19.694 19.693 5.604 5.604 2.846 2.845L45.96 24.489l4.137-4.136z"/><path fill="#DD7047" d="M47.25 17.507l-5.602-5.603-4.137 4.136 8.448 8.449 4.137-4.136z"/><path fill="#494846" d="M14 48l5.607-1.745-3.862-3.863z"/><path fill="#E4BA2A" d="M23.42 41.337l2.847 2.844L45.96 24.49l-2.846-2.846z"/><path fill="#C56545" d="M47.25 17.507l-4.136 4.136 2.846 2.846 4.136-4.136z"/></g></svg>