<svg width="60" height="60" xmlns="http://www.w3.org/2000/svg"><g fill="none" fill-rule="evenodd"><path d="M60 30c0 16.569-13.431 30-30 30C13.431 60 0 46.569 0 30 0 13.431 13.431 0 30 0c16.569 0 30 13.431 30 30" fill="#2DCDB4"/><path d="M30.47 12.503c-10.98-.181-19.986 7.71-20.12 17.627-.133 9.916 8.658 16.657 19.636 16.838 1.055.017 3.104-.168 3.104-.168l7.41 5.7V46c0-1.193-.28-1.67-.556-.266 6.79-4.284 10.085-9.314 10.161-14.95.134-9.916-8.657-18.101-19.635-18.28" fill="#FFF"/><path d="M23.666 30.5a2.5 2.5 0 1 1-4.999 0 2.5 2.5 0 0 1 5 0M32.834 30.5a2.5 2.5 0 1 1-5 0 2.5 2.5 0 0 1 5 0M42 30.5a2.5 2.5 0 1 1-5 0 2.5 2.5 0 0 1 5 0" fill="#494846"/></g></svg>