<svg width="60" height="60" xmlns="http://www.w3.org/2000/svg" xmlns:xlink="http://www.w3.org/1999/xlink"><defs><path id="a" d="M.807 1h1.279V.97H.807V1z"/></defs><g fill="none" fill-rule="evenodd"><path d="M60 30c0 16.568-13.432 30-30 30C13.432 60 0 46.568 0 30 0 13.432 13.432 0 30 0c16.568 0 30 13.432 30 30" fill="#BEE6F0"/><g transform="translate(28 59)"><mask id="b" fill="#fff"><use xlink:href="#a"/></mask><path d="M2 1l.086-.002C1.657.997 1.233.982.807.97 1.204.985 1.6 1 2 1" fill="#BEE6F0" mask="url(#b)"/></g><path d="M38.044 39.347l11.92 13.04a30.154 30.154 0 0 0 5.226-6.103L43.447 33.543l-5.403 5.804z" fill="#6E8C2E"/><path d="M30 60c7.667 0 14.66-2.881 19.963-7.613l-11.919-13.04L26.301 26.5 5.68 47.556C11.13 55.092 19.989 60 30 60" fill="#90B23D"/><path d="M45.156 20.845a3.845 3.845 0 0 1-3.846 3.846 3.845 3.845 0 0 1-3.847-3.846 3.845 3.845 0 0 1 3.847-3.846 3.845 3.845 0 0 1 3.846 3.846" fill="#FFF"/></g></svg>