<svg width="60" height="60" xmlns="http://www.w3.org/2000/svg"><g fill="none" fill-rule="evenodd"><path d="M60 30c0 16.568-13.432 30-30 30C13.432 60 0 46.568 0 30 0 13.432 13.432 0 30 0c16.568 0 30 13.432 30 30" fill="#494846"/><path d="M49 11.5H11.205c-.886 0-1.705.615-1.705 1.5v32.897c0 .886.717 1.603 1.603 1.603h37.795c.884 0 1.602-.717 1.602-1.603V13c0-.885-.616-1.5-1.5-1.5" fill="#E1E5E7" opacity=".3"/><path fill="#494846" d="M11.5 45.5h5v-4h-5zM11.5 38.5h5v-4h-5zM11.5 31.5h5v-4h-5zM11.5 24.5h5v-4h-5zM11.5 17.5h5v-4h-5zM43.5 45.5h5v-4h-5zM43.5 38.5h5v-4h-5zM43.5 31.5h5v-4h-5zM43.5 24.5h5v-4h-5zM43.5 17.5h5v-4h-5z"/><path fill="#FFF" d="M26 24v10.9l9.083-5.668z"/></g></svg>