<?xml version="1.0" encoding="UTF-8" standalone="no"?>
<svg width="12px" height="12px" viewBox="0 0 12 12" version="1.1" xmlns="http://www.w3.org/2000/svg" xmlns:xlink="http://www.w3.org/1999/xlink">
    <!-- Generator: Sketch 48 (47235) - http://www.bohemiancoding.com/sketch -->
    <title>icon_like_outline_s</title>
    <desc>Created with Sketch.</desc>
    <defs></defs>
    <g id="おすすめ" stroke="none" stroke-width="1" fill="none" fill-rule="evenodd">
        <g id="icon_like_outline_s" fill="#898D8C">
            <path d="M8.58311545,0.5 C7.21211545,0.5 6.53811545,1.10504794 5.98211545,1.74760293 C5.42611545,1.12577552 4.75511545,0.539481105 3.43211545,0.539481105 C3.35511545,0.539481105 3.27611545,0.541455161 3.19511545,0.545403271 C1.07211545,0.650028201 -0.0128845504,2.41582064 0.000115449609,4.08981951 C0.0121154496,5.54371122 0.50011545,6.60871404 3.12411545,8.93908629 C4.22811545,9.91920474 5.23911545,10.5844614 5.73011545,10.9052453 C5.82811545,10.9674281 5.93911545,11 6.05011545,11 C6.16411545,11 6.27811545,10.9664411 6.37711545,10.9003102 C6.86311545,10.57163 7.86411545,9.89156796 8.95211545,8.89467005 C11.5401154,6.52481669 12.0111154,5.45290468 12.0001154,3.99802594 C11.9871154,2.3250141 10.8741154,0.576001128 8.75011545,0.502961083 C8.69311545,0.500987028 8.63711545,0.5 8.58311545,0.5 M8.58311545,1.48702764 L8.71511545,1.48900169 C10.2711154,1.54328821 10.9911154,2.83037225 11.0001154,4.00592217 C11.0081154,5.00479413 10.8221154,5.83488438 8.27211545,8.17019177 C7.37511545,8.99238579 6.53711545,9.59052453 6.04611545,9.92710096 C5.55011545,9.59842076 4.70211545,9.01212634 3.79211545,8.20572476 C1.20711545,5.90792442 1.00811545,5.08178229 1.00011545,4.08192329 C0.99111545,2.90736041 1.68911545,1.60843204 3.24611545,1.53144388 C3.30911545,1.5284828 3.37111545,1.52650874 3.43111545,1.52650874 L3.43211545,1.52650874 C4.37611545,1.52650874 4.79011545,1.90552735 5.23211545,2.4000282 L5.99411545,3.25380711 L6.74211545,2.38818387 C7.18511545,1.87789058 7.60111545,1.48702764 8.58311545,1.48702764" id="Fill-1"></path>
        </g>
    </g>
</svg>