<svg width="98" height="25" xmlns="http://www.w3.org/2000/svg" xmlns:xlink="http://www.w3.org/1999/xlink"><defs><path id="a" d="M21.087.217H0v24.386h21.087z"/></defs><g fill="none" fill-rule="evenodd"><g transform="translate(0 .18)"><mask id="b" fill="#fff"><use xlink:href="#a"/></mask><path d="M18.565 22.081H2.527L2.53 7.432c0-.157.058-.352.161-.465a396.133 396.133 0 0 1 3.705-4.039.633.633 0 0 1 .41-.194c1.424-.004 11.76 0 11.76 0V22.08zM19.825.217S8.113.222 6.17.217A1.554 1.554 0 0 0 4.935.76 632.828 632.828 0 0 1 .518 5.572 1.827 1.827 0 0 0 0 6.9c.004.563.005 16.443.005 16.443 0 .694.568 1.261 1.261 1.261h18.56c.694 0 1.26-.567 1.26-1.26V1.477c0-.693-.566-1.261-1.26-1.261z" fill="#41C9B4" mask="url(#b)"/></g><path d="M9.02 4.547c-.632 0-1.145.513-1.145 1.144v2.065a.304.304 0 0 1-.303.304H5.507a1.144 1.144 0 0 0 0 2.289H9.02c.632 0 1.145-.513 1.145-1.145V5.691c0-.631-.513-1.144-1.145-1.144" fill="#41C9B4"/><path d="M60.535 13.502v-.051c0-2.031-1.465-3.805-3.624-3.805-2.236 0-3.573 1.723-3.573 3.753v.052c0 2.03 1.466 3.803 3.624 3.803 2.237 0 3.573-1.722 3.573-3.752m-11.052 0v-.051c0-3.96 3.188-7.171 7.479-7.171 4.267 0 7.428 3.16 7.428 7.12v.05c0 3.959-3.187 7.17-7.48 7.17-4.265 0-7.427-3.16-7.427-7.118M70.766 16.406v-6.069c0-.281-.21-.46-.462-.46h-.95s-.233 0-.233-.238V6.767c0-.111.02-.23.236-.23h.942c.23 0 .467-.156.467-.462V3.25c0-.151.045-.236.226-.236h3.437c.094 0 .244.053.244.253v2.807c0 .273.12.462.456.462h2.546c.124 0 .236.037.236.237v2.865c0 .13-.013.238-.237.238h-2.54c-.275 0-.461.166-.461.46v5.427c0 .9.467 1.398 1.258 1.336.747-.058 1.071-.092 1.606-.347 0 0 .323-.064.323.259v2.491a.4.4 0 0 1-.219.368c-.8.41-1.633.673-2.866.673-2.39 0-4.01-.952-4.01-4.138M32.088 6.536h3.434c.096 0 .236.084.236.236v.737c0 .414.422.483.565.318.877-1.01 2.185-1.548 3.47-1.548 2.956 0 4.678 1.954 4.678 5.115v8.682c0 .065-.058.237-.236.237H40.8c-.095 0-.237-.08-.237-.236v-7.45c0-1.85-.873-2.8-2.364-2.8-1.49 0-2.442.95-2.442 2.8v7.45c0 .094-.075.236-.235.236h-3.435c-.094 0-.236-.083-.236-.237V6.772c0-.103.074-.236.236-.236M93.06 11.89c-.333-1.342-1.178-2.475-2.823-2.475-2.082 0-2.742 1.92-2.874 2.44-.048.192.076.49.375.49h4.922c.441 0 .4-.454.4-.454m-9.635 1.61v-.05c0-3.933 2.802-7.171 6.812-7.171 4.6 0 6.708 3.572 6.708 7.479 0 .192-.01.405-.024.625-.008.133-.102.402-.432.402H87.82c-.374 0-.418.38-.356.555.506 1.411 1.654 2.145 3.21 2.145 1.206 0 2.078-.343 3.085-1.185a.38.38 0 0 1 .532.016l1.687 1.493c.2.177.16.387.035.52-1.293 1.391-2.98 2.29-5.39 2.29-4.139 0-7.198-2.903-7.198-7.118" fill="#040000"/></g></svg>