<svg width="30" height="30" xmlns="http://www.w3.org/2000/svg"><g fill="none" fill-rule="evenodd"><path d="M0 0h30v30H0z"/><path d="M22 20.032H8v-.367c.028-.026.105-.086.31-.194 1.468-.777 1.468-2.359 1.468-3.208v-2.747c0-2.276 1.533-4.32 3.728-4.971l.716-.212V7.327c0-.18.15-.327.334-.327h.888c.184 0 .334.147.334.327v1.006l.716.212c2.195.651 3.728 2.695 3.728 4.971v2.747c0 .85 0 2.434 1.46 3.203.238.126.303.182.31.182 0 0 .007.023.008.058v.326zM15 22.3a1.274 1.274 0 0 1-1.277-1.268h2.554c0 .7-.573 1.268-1.277 1.268zm7.148-3.718c-.855-.451-.926-1.357-.926-2.319v-2.747c0-2.803-1.875-5.168-4.444-5.93v-.259A1.33 1.33 0 0 0 15.444 6h-.888a1.33 1.33 0 0 0-1.334 1.327v.259c-2.569.762-4.444 3.127-4.444 5.93v2.747c0 .966-.079 1.87-.936 2.324-.518.274-.847.538-.842 1.119v.707a.62.62 0 0 0 .622.619h5.101A2.275 2.275 0 0 0 15 23.3a2.275 2.275 0 0 0 2.277-2.268h5.101a.62.62 0 0 0 .622-.619v-.707c-.014-.602-.328-.848-.852-1.124z" fill="#444"/></g></svg>