<svg width="16" height="16" xmlns="http://www.w3.org/2000/svg"><g fill="#FFF" fill-rule="evenodd"><path d="M12.5 7.815v5.102a1 1 0 0 1-1 1h-9a1 1 0 0 1-1-1v-9a1 1 0 0 1 1-1h5.102a.75.75 0 0 0 0-1.5H2.5a2.5 2.5 0 0 0-2.5 2.5v9a2.5 2.5 0 0 0 2.5 2.5h9a2.5 2.5 0 0 0 2.5-2.5V7.815a.75.75 0 1 0-1.5 0"/><path d="M4.857 8.83l-.817 2.225c-.104.229.093.426.322.322l2.224-.817.109-.07 6.878-6.88-1.768-1.766-6.88 6.878a6.565 6.565 0 0 1-.068.109zm9.353-5.855l-1.768-1.768 1.06-1.061a.5.5 0 0 1 .708 0l1.06 1.06a.5.5 0 0 1 0 .708l-1.06 1.06z"/></g></svg>