<svg width="30" height="30" xmlns="http://www.w3.org/2000/svg" xmlns:xlink="http://www.w3.org/1999/xlink"><defs><path id="a" d="M18.999 16V0H0v16H19z"/></defs><g fill="none" fill-rule="evenodd"><path d="M0 0h30v30H0z"/><g transform="translate(6 7)"><mask id="b" fill="#fff"><use xlink:href="#a"/></mask><path d="M8.535 10.321h2.796v4.732l6.644-7.052-6.709-7.01.065 4.688H8.535C4.38 5.68 1 9 1 13.077v.113c1.68-2.869 3.958-2.869 7.535-2.869m2.758 5.68a.984.984 0 0 1-.363-.07.941.941 0 0 1-.599-.878v-3.732H8.535c-3.743 0-5.622 0-7.068 3.14-.178.383-.525.58-.889.5A.74.74 0 0 1 0 14.23v-1.152C0 8.447 3.83 4.68 8.535 4.68h1.796V.947a.94.94 0 0 1 .6-.876.96.96 0 0 1 1.06.23l6.748 7.051a.937.937 0 0 1 0 1.296l-6.75 7.053a.957.957 0 0 1-.696.3" fill="#898D8C" mask="url(#b)"/></g></g></svg>